<svg width="64" height="45" viewBox="0 0 64 45" fill="none" xmlns="http://www.w3.org/2000/svg">
<path d="M12.2192 9.44783C14.3985 4.26642 19.26 0.631122 24.7461 0.0807065C28.4717 -0.293001 32.0832 0.636712 35.1267 2.75338C36.0641 3.40525 36.2058 3.45701 36.6445 3.30842C38.5982 2.64665 41.7769 2.51691 43.8389 3.01476C47.4552 3.88776 50.8069 6.56746 52.488 9.92987C53.0077 10.9692 53.113 11.0836 53.642 11.1822C54.7098 11.3814 56.6744 12.2307 57.8524 13.0026C60.692 14.8632 62.7414 17.8228 63.4995 21.158C63.7093 22.0804 63.7521 22.8307 63.6912 24.5132C63.6237 26.3824 63.5467 26.8737 63.1309 28.0843C61.9972 31.3866 59.5475 34.1922 56.4932 35.6864C54.1137 36.8507 53.1584 37.0263 48.7519 37.1094L45.0372 37.1793V38.6855C45.0372 40.3751 45.2458 41.0636 45.9182 41.5924C46.3233 41.9112 46.5411 41.9388 48.6536 41.9388H50.9488V43.4566V44.9745H48.9594C45.7958 44.9745 44.585 44.5821 43.3223 43.1476C42.1859 41.8565 42.1613 41.6621 42.1613 33.9502C42.1613 27.9827 42.1953 27.0111 42.4302 26.2843C42.7641 25.2499 43.8552 24.0031 44.8811 23.4832C45.5259 23.1565 45.6547 23.0111 45.7501 22.5023C46.0295 21.0131 47.2219 19.5458 48.6924 18.8816C49.232 18.6378 49.7537 18.5483 50.6292 18.5496C52.2213 18.5518 53.2404 18.9966 54.2938 20.1491C55.2963 21.2461 55.6371 22.2258 55.5556 23.7768C55.4534 25.7227 54.4642 27.2016 52.717 28.0209C50.8069 28.9166 48.4351 28.4281 46.9685 26.8371C46.6057 26.4435 46.2518 26.1213 46.1821 26.1213C46.1126 26.1213 45.8444 26.3417 45.5863 26.6109L45.1171 27.1003L45.0659 30.6052L45.0148 34.11H48.5154C52.4707 34.11 53.6679 33.9114 55.4714 32.9556C56.7867 32.2587 58.6516 30.4665 59.4153 29.166C61.171 26.1752 61.2852 22.6639 59.7319 19.4255C59.2167 18.3511 58.8246 17.8197 57.7742 16.7723C56.1835 15.1859 54.7755 14.4431 52.4187 13.9467L50.8507 13.6165L50.4824 12.6393C49.3068 9.52069 46.9292 7.14983 43.9422 6.11738C43.0363 5.80438 42.5631 5.75086 40.7233 5.7531C38.7281 5.75566 38.4544 5.79368 37.0719 6.26086L35.5774 6.76574L34.196 5.71076C31.5671 3.7029 29.5955 3.04001 26.264 3.04352C24.1559 3.04576 23.9397 3.07596 22.5093 3.56869C18.6311 4.90487 15.9075 7.68347 14.5237 11.7158L13.9402 13.4159L12.5128 13.6188C10.7758 13.8657 9.60209 14.1948 8.53609 14.7337C6.04045 15.9955 3.97619 18.5755 3.2497 21.341C2.92808 22.5656 2.89085 24.9176 3.17381 26.1368C3.46347 27.3847 4.46685 29.4133 5.31988 30.4755C6.57489 32.0382 8.52268 33.2576 10.6216 33.7944C11.6972 34.0694 12.396 34.11 16.0641 34.11H20.2725V30.7468C20.2725 27.1036 20.2122 26.7937 19.3754 26.1354C18.8261 25.7034 18.4142 25.7123 18.1751 26.1613C17.7315 26.9948 16.9845 27.7243 16.063 28.2243C15.1623 28.7128 14.9661 28.7569 13.7218 28.7498C12.1049 28.7403 11.2043 28.397 10.2235 27.4161C9.22999 26.4227 8.88504 25.6141 8.801 24.0807C8.73326 22.846 8.7617 22.6917 9.23383 21.7326C10.6999 18.7547 14.3175 17.9389 16.8828 20.0077C17.58 20.5699 18.5108 21.9831 18.5136 22.4835C18.5144 22.6552 18.6815 22.7957 18.9544 22.854C20.1828 23.1168 20.8747 23.491 21.7242 24.3522C23.1727 25.8203 23.1484 25.6582 23.1484 33.8703C23.1484 41.7934 23.1434 41.8343 22.0134 43.1181C20.7476 44.5559 19.5661 44.9697 16.7175 44.9725L14.8402 44.9745V43.4566V41.9388H16.8957C18.7623 41.9388 18.9917 41.907 19.3915 41.5924C20.0638 41.0636 20.2725 40.3751 20.2725 38.685V37.1784L15.7589 37.106C11.778 37.0423 11.0945 36.993 9.96717 36.6887C7.27054 35.9604 4.69948 34.3351 3.00845 32.2893C2.56509 31.7528 1.8434 30.595 1.40482 29.7162C-2.39648 22.0999 1.84259 13.0994 10.1961 11.0504L11.7002 10.6814L12.2192 9.44783Z" fill="white"/>
<path d="M22.7451 9.68542C23.574 8.92138 24.3182 8.55982 25.3852 8.40277C27.7185 8.05942 30.0063 9.38201 30.8235 11.5468C31.462 13.2381 31.0047 15.5543 29.813 16.6657L29.4158 17.0359L29.917 18.0238L30.418 19.0115L30.4616 31.993L30.5053 44.9745H29.0636H27.622L27.6131 32.5522C27.6063 23.3584 27.5544 19.9885 27.4133 19.5857C27.1535 18.8444 26.602 18.4783 25.351 18.2165C24.018 17.9376 23.448 17.6418 22.59 16.7839C21.7852 15.9792 21.4558 15.3385 21.23 14.1394C20.9197 12.4907 21.476 10.8553 22.7451 9.68542Z" fill="white"/>
<path d="M36.0706 12.7952C36.6626 11.5931 37.5341 10.7714 38.714 10.3033C39.8625 9.84774 41.6185 9.93562 42.7205 10.5036C46.4408 12.4212 46.4339 17.5946 42.7088 19.4286C41.7502 19.9005 41.512 19.9509 40.3046 19.9378C38.7329 19.9206 38.0561 20.2464 37.7366 21.174C37.5961 21.5821 37.5435 24.7818 37.5368 33.351L37.5279 44.9745H36.0851H34.6426L34.6871 32.712L34.7319 20.4494L35.0923 19.7749C35.2906 19.4039 35.674 18.8482 35.9445 18.5401L36.4365 17.98L36.0052 17.0987C35.6579 16.3887 35.5726 15.9857 35.5664 15.0263C35.5598 13.9999 35.6295 13.6915 36.0706 12.7952Z" fill="white"/>
</svg>
